<?xml version="1.0" standalone="no"?>
<!DOCTYPE svg PUBLIC "-//W3C//DTD SVG 20010904//EN"
 "http://www.w3.org/TR/2001/REC-SVG-20010904/DTD/svg10.dtd">
<svg version="1.0" xmlns="http://www.w3.org/2000/svg"
 width="211.000000pt" height="118.000000pt" viewBox="0 0 211.000000 118.000000"
 preserveAspectRatio="xMidYMid meet">

<g transform="translate(0.000000,118.000000) scale(0.100000,-0.100000)"
fill="#000000" stroke="none">
<path d="M580 928 c0 -138 -3 -248 -7 -244 -4 3 -57 113 -118 244 -107 229
-112 237 -141 240 -38 4 -42 -1 -87 -113 -20 -49 -69 -169 -108 -265 -39 -96
-79 -196 -90 -222 l-19 -48 28 0 c26 0 30 8 86 150 l59 150 88 0 c65 0 88 4
92 14 10 25 -16 36 -85 36 -37 0 -68 2 -68 5 0 14 94 235 100 235 4 0 15 -19
26 -42 71 -163 244 -532 253 -541 5 -5 17 -7 25 -4 14 6 16 43 16 307 l0 300
133 0 c72 0 149 -5 169 -10 80 -23 117 -118 80 -203 -25 -56 -61 -81 -128 -87
l-53 -5 75 -110 c128 -189 139 -194 412 -195 l202 0 20 43 c11 23 39 89 63
147 l42 105 85 3 c91 3 111 11 90 37 -9 11 -32 15 -82 15 -52 0 -69 3 -65 13
3 6 24 60 48 120 23 59 45 107 48 107 6 0 87 -172 230 -487 42 -94 48 -103 74
-103 15 0 27 1 27 3 0 2 -67 147 -148 323 -140 302 -149 319 -176 322 -16 2
-33 -1 -39 -7 -6 -6 -63 -140 -127 -298 l-117 -288 -169 -3 c-93 -2 -184 0
-202 3 -18 3 -51 23 -74 43 -40 36 -118 142 -118 160 0 6 11 12 23 16 70 17
121 99 121 191 -1 68 -19 110 -64 148 -46 39 -90 47 -267 47 l-163 0 0 -252z"/>
<path d="M1155 1160 c-4 -6 -1 -17 5 -25 10 -12 46 -15 180 -15 134 0 170 3
180 15 25 30 0 35 -180 35 -113 0 -181 -4 -185 -10z"/>
<path d="M1162 857 c-26 -31 2 -38 139 -35 126 3 134 4 134 23 0 19 -8 20
-131 23 -99 2 -134 -1 -142 -11z"/>
<path d="M4 375 c-11 -28 4 -45 41 -45 19 0 35 -5 35 -11 0 -8 -14 -10 -40 -6
-49 6 -54 -10 -5 -19 47 -8 67 1 63 28 -2 19 -10 24 -40 26 -51 4 -48 22 3 22
24 0 38 4 34 10 -10 16 -85 12 -91 -5z"/>
<path d="M204 376 c-3 -8 -4 -29 -2 -48 3 -31 5 -33 46 -36 25 -2 42 1 42 7 0
6 -16 11 -35 11 -32 0 -35 2 -35 30 0 28 3 30 35 30 19 0 35 5 35 10 0 16 -80
12 -86 -4z"/>
<path d="M403 340 c0 -30 2 -43 4 -27 2 15 2 39 0 55 -2 15 -4 2 -4 -28z"/>
<path d="M510 340 l0 -50 45 0 c25 0 45 5 45 10 0 6 -16 10 -35 10 -19 0 -35
5 -35 10 0 6 14 10 30 10 17 0 30 5 30 10 0 6 -13 10 -30 10 -16 0 -30 5 -30
10 0 6 16 10 35 10 19 0 35 5 35 10 0 6 -20 10 -45 10 l-45 0 0 -50z"/>
<path d="M700 340 c0 -27 5 -50 10 -50 6 0 10 14 10 32 l0 32 33 -32 c18 -18
36 -32 40 -32 4 0 7 23 7 50 0 28 -4 50 -10 50 -5 0 -10 -13 -10 -30 0 -16 -3
-30 -6 -30 -3 0 -17 14 -31 30 -13 17 -29 30 -34 30 -5 0 -9 -22 -9 -50z"/>
<path d="M904 376 c-3 -8 -4 -29 -2 -48 3 -31 5 -33 46 -36 25 -2 42 1 42 7 0
6 -16 11 -35 11 -32 0 -35 2 -35 30 0 28 3 30 35 30 19 0 35 5 35 10 0 16 -80
12 -86 -4z"/>
<path d="M1100 340 l0 -50 40 0 c22 0 40 5 40 10 0 6 -16 10 -35 10 -19 0 -35
5 -35 10 0 6 14 10 30 10 17 0 30 5 30 10 0 6 -13 10 -30 10 -16 0 -30 5 -30
10 0 6 16 10 35 10 19 0 35 5 35 10 0 6 -18 10 -40 10 l-40 0 0 -50z"/>
<path d="M1418 383 c-10 -19 -9 -93 1 -93 6 0 11 6 11 14 0 10 13 16 38 18 34
3 37 6 37 33 0 28 -3 30 -42 33 -22 2 -43 -1 -45 -5z m72 -28 c0 -10 -10 -15
-30 -15 -20 0 -30 5 -30 15 0 10 10 15 30 15 20 0 30 -5 30 -15z"/>
<path d="M1617 384 c-11 -11 -8 -94 3 -94 6 0 10 7 10 15 0 10 10 15 30 15 20
0 30 -5 30 -15 0 -8 5 -15 11 -15 6 0 9 19 7 48 l-3 47 -40 3 c-23 2 -44 0
-48 -4z m73 -29 c0 -10 -10 -15 -30 -15 -20 0 -30 5 -30 15 0 10 10 15 30 15
20 0 30 -5 30 -15z"/>
<path d="M1819 341 c-2 -28 -1 -51 4 -51 4 0 7 7 7 15 0 8 8 15 19 15 10 0 24
-7 31 -15 20 -24 25 -18 25 33 l0 47 -41 3 -42 3 -3 -50z m71 14 c0 -10 -10
-15 -30 -15 -29 0 -38 9 -23 23 13 13 53 7 53 -8z"/>
<path d="M2017 384 c-11 -11 -8 -94 3 -94 6 0 10 6 10 14 0 26 23 30 41 8 9
-12 23 -22 30 -22 8 0 4 9 -9 23 -20 22 -20 22 -1 46 28 35 14 39 -21 6 -30
-28 -31 -28 -42 13 -2 7 -7 10 -11 6z"/>
<path d="M590 85 l0 -75 85 0 85 0 0 75 0 75 -85 0 -85 0 0 -75z"/>
<path d="M1082 83 l3 -78 90 0 90 0 3 78 3 77 -96 0 -96 0 3 -77z"/>
<path d="M1332 83 l3 -78 90 0 90 0 3 78 3 77 -96 0 -96 0 3 -77z"/>
</g>
</svg>
